<svg width="50" height="50" viewBox="0 0 50 50" fill="none" xmlns="http://www.w3.org/2000/svg">
<path fill-rule="evenodd" clip-rule="evenodd" d="M42.9649 28.0174C44.4893 29.7027 45.3334 31.8942 45.3333 34.1667C45.3448 36.447 44.5058 38.6498 42.9803 40.3448C41.4548 42.0398 39.3523 43.1053 37.0833 43.3333V46.0833C37.0833 46.3265 36.9868 46.5596 36.8148 46.7315C36.6429 46.9034 36.4098 47 36.1667 47H5.91667C5.67355 47 5.44039 46.9034 5.26849 46.7315C5.09658 46.5596 5 46.3265 5 46.0833V7.58333C5 6.36776 5.48289 5.20197 6.34243 4.34243C7.20197 3.48289 8.36776 3 9.58333 3H39.8333C41.0489 3 42.2147 3.48289 43.0742 4.34243C43.9338 5.20197 44.4167 6.36776 44.4167 7.58333V11.25C44.4167 11.4931 44.3201 11.7263 44.1482 11.8982C43.9763 12.0701 43.7431 12.1667 43.5 12.1667H37.0833V25.0458C39.3444 25.2731 41.4405 26.3321 42.9649 28.0174ZM42.5833 10.3333V7.58333C42.5833 6.85399 42.2936 6.15451 41.7779 5.63879C41.2621 5.12306 40.5627 4.83333 39.8333 4.83333C39.104 4.83333 38.4045 5.12306 37.8888 5.63879C37.3731 6.15451 37.0833 6.85399 37.0833 7.58333V10.3333H42.5833ZM6.83333 7.58333V45.1667H35.25V43.3333C32.9368 43.1695 30.7716 42.1349 29.1908 40.4382C27.6101 38.7414 26.7311 36.5086 26.7311 34.1896C26.7311 31.8706 27.6101 29.6377 29.1908 27.941C30.7716 26.2442 32.9368 25.2097 35.25 25.0458C35.25 20.9293 35.2346 17.7247 35.2225 15.2143C35.1859 7.62526 35.1799 6.37965 35.7233 5.45795C35.83 5.27699 35.9579 5.10851 36.1108 4.90696L36.1109 4.90688L36.1109 4.90687L36.1667 4.83333H9.58333C8.85399 4.83333 8.15451 5.12306 7.63879 5.63879C7.12306 6.15451 6.83333 6.85399 6.83333 7.58333ZM32.0925 40.2641C33.2984 41.0699 34.7163 41.5 36.1667 41.5C38.1116 41.5 39.9768 40.7274 41.3521 39.3521C42.7274 37.9768 43.5 36.1116 43.5 34.1667C43.5 32.7163 43.0699 31.2984 42.2641 30.0925C41.4583 28.8865 40.313 27.9466 38.973 27.3916C37.633 26.8365 36.1585 26.6913 34.736 26.9742C33.3135 27.2572 32.0068 27.9556 30.9812 28.9812C29.9556 30.0068 29.2572 31.3135 28.9742 32.736C28.6913 34.1585 28.8365 35.633 29.3915 36.973C29.9466 38.313 30.8865 39.4583 32.0925 40.2641ZM10.5019 27.7462H17.8352C18.0784 27.7462 18.3115 27.6496 18.4834 27.4777C18.6553 27.3058 18.7519 27.0726 18.7519 26.8295C18.7519 26.5864 18.6553 26.3532 18.4834 26.1813C18.3115 26.0094 18.0784 25.9128 17.8352 25.9128H10.5019C10.2588 25.9128 10.0256 26.0094 9.85373 26.1813C9.68182 26.3532 9.58524 26.5864 9.58524 26.8295C9.58524 27.0726 9.68182 27.3058 9.85373 27.4777C10.0256 27.6496 10.2588 27.7462 10.5019 27.7462ZM10.5019 30.5H23.3352C23.5784 30.5 23.8115 30.5966 23.9834 30.7685C24.1553 30.9404 24.2519 31.1736 24.2519 31.4167C24.2519 31.6598 24.1553 31.8929 23.9834 32.0648C23.8115 32.2368 23.5784 32.3333 23.3352 32.3333H10.5019C10.2588 32.3333 10.0256 32.2368 9.85373 32.0648C9.68182 31.8929 9.58524 31.6598 9.58524 31.4167C9.58524 31.1736 9.68182 30.9404 9.85373 30.7685C10.0256 30.5966 10.2588 30.5 10.5019 30.5ZM23.3352 35.0872H10.5019C10.2588 35.0872 10.0256 35.1837 9.85373 35.3556C9.68182 35.5275 9.58524 35.7607 9.58524 36.0038C9.58524 36.2469 9.68182 36.4801 9.85373 36.652C10.0256 36.8239 10.2588 36.9205 10.5019 36.9205H23.3352C23.5784 36.9205 23.8115 36.8239 23.9834 36.652C24.1553 36.4801 24.2519 36.2469 24.2519 36.0038C24.2519 35.7607 24.1553 35.5275 23.9834 35.3556C23.8115 35.1837 23.5784 35.0872 23.3352 35.0872ZM23.3352 39.6628H10.5019C10.2588 39.6628 10.0256 39.7594 9.85373 39.9313C9.68182 40.1032 9.58524 40.3364 9.58524 40.5795C9.58524 40.8226 9.68182 41.0558 9.85373 41.2277C10.0256 41.3996 10.2588 41.4962 10.5019 41.4962H23.3352C23.5784 41.4962 23.8115 41.3996 23.9834 41.2277C24.1553 41.0558 24.2519 40.8226 24.2519 40.5795C24.2519 40.3364 24.1553 40.1032 23.9834 39.9313C23.8115 39.7594 23.5784 39.6628 23.3352 39.6628ZM27 19.5C27 19.7431 27.0966 19.9763 27.2685 20.1482C27.4404 20.3201 27.6736 20.4167 27.9167 20.4167C28.1598 20.4167 28.3929 20.3201 28.5648 20.1482C28.7368 19.9763 28.8333 19.7431 28.8333 19.5V13.0833H30.6667C30.9098 13.0833 31.1429 12.9868 31.3148 12.8148C31.4868 12.6429 31.5833 12.4098 31.5833 12.1667C31.5833 11.9236 31.4868 11.6904 31.3148 11.5185C31.1429 11.3466 30.9098 11.25 30.6667 11.25H25.1667C24.9236 11.25 24.6904 11.3466 24.5185 11.5185C24.3466 11.6904 24.25 11.9236 24.25 12.1667C24.25 12.4098 24.3466 12.6429 24.5185 12.8148C24.6904 12.9868 24.9236 13.0833 25.1667 13.0833H27V19.5ZM22.028 11.4084C22.1821 11.5164 22.2993 11.6693 22.3635 11.8463L25.1135 19.1796C25.1986 19.4081 25.1894 19.6611 25.088 19.8829C24.9866 20.1046 24.8012 20.277 24.5727 20.3621C24.3441 20.4472 24.0912 20.438 23.8694 20.3366C23.6476 20.2352 23.4753 20.0498 23.3902 19.8213L22.9318 18.5838H20.0718L19.6135 19.8213C19.5284 20.0498 19.356 20.2352 19.1343 20.3366C18.9125 20.438 18.6595 20.4472 18.431 20.3621C18.2025 20.277 18.0171 20.1046 17.9157 19.8829C17.8143 19.6611 17.8051 19.4081 17.8902 19.1796L20.6402 11.8463C20.7044 11.6693 20.8216 11.5164 20.9757 11.4084C21.1299 11.3003 21.3136 11.2424 21.5018 11.2424C21.6901 11.2424 21.8738 11.3003 22.028 11.4084ZM21.5018 14.7796L20.7593 16.7505H22.2443L21.5018 14.7796ZM13.3059 19.8198C13.3701 19.9968 13.4873 20.1497 13.6414 20.2577C13.7956 20.3658 13.9793 20.4237 14.1675 20.4237C14.3558 20.4237 14.5395 20.3658 14.6937 20.2577C14.8478 20.1497 14.965 19.9968 15.0292 19.8198L17.7792 12.4865C17.8643 12.2579 17.8551 12.005 17.7537 11.7832C17.6523 11.5615 17.4669 11.3891 17.2384 11.304C17.0099 11.2189 16.7569 11.2281 16.5351 11.3295C16.3134 11.4309 16.141 11.6163 16.0559 11.8448L14.1675 16.8865L12.2792 11.8448C12.1941 11.6163 12.0217 11.4309 11.8 11.3295C11.5782 11.2281 11.3252 11.2189 11.0967 11.304C10.8682 11.3891 10.6828 11.5615 10.5814 11.7832C10.48 12.005 10.4708 12.2579 10.5559 12.4865L13.3059 19.8198ZM35.2519 31.4205C35.2519 32.433 34.4311 33.2538 33.4186 33.2538C32.4061 33.2538 31.5852 32.433 31.5852 31.4205C31.5852 30.408 32.4061 29.5872 33.4186 29.5872C34.4311 29.5872 35.2519 30.408 35.2519 31.4205ZM38.9186 38.7538C39.9311 38.7538 40.7519 37.933 40.7519 36.9205C40.7519 35.908 39.9311 35.0872 38.9186 35.0872C37.9061 35.0872 37.0852 35.908 37.0852 36.9205C37.0852 37.933 37.9061 38.7538 38.9186 38.7538ZM32.5199 37.2686L38.3865 29.9353C38.5412 29.7542 38.7602 29.6404 38.9973 29.618C39.2344 29.5955 39.471 29.6663 39.6568 29.8152C39.8427 29.9641 39.9633 30.1795 39.9931 30.4158C40.0229 30.6521 39.9596 30.8907 39.8165 31.0811C34.262 38.0284 33.8814 38.6873 33.4219 38.7479C33.3643 38.7555 33.3054 38.7536 33.2349 38.7536C33.063 38.7528 32.8949 38.7038 32.7496 38.612C32.6043 38.5202 32.4877 38.3895 32.4131 38.2346C32.3386 38.0798 32.3091 37.9071 32.3279 37.7363C32.3468 37.5655 32.4133 37.4035 32.5199 37.2686Z" fill="#33B7BC"/>
</svg>
