<svg width="50" height="50" viewBox="0 0 50 50" fill="none" xmlns="http://www.w3.org/2000/svg">
<g clip-path="url(#clip0_2_15805)">
<path d="M7.37018 34.5372C7.46685 34.8631 7.55488 35.0712 7.71559 35.1927C7.87649 35.3144 8.10025 35.3419 8.44212 35.3419H8.45789H8.47366H8.48943H8.50519H8.52096H8.53673H8.5525H8.56827H8.58404H8.59981H8.61558H8.63134H8.64711H8.66288H8.67865H8.69442H8.71019H8.72596H8.74173H8.75749H8.77326H8.78903H8.8048H8.82057H8.83634H8.85211H8.86788H8.88364H8.89941H8.91518H8.93095H8.94672H8.96249H8.97826H8.99403H9.00979H9.02556H9.04133H9.0571H9.07287H9.08864H9.10441H9.12018H9.13594H9.15171H9.16748H9.18325H9.19902H9.21479H9.23056H9.24633H9.26209H9.27786H9.29363H9.3094H9.32517H9.34094H9.35671H9.37248H9.38824H9.40401H9.41978H9.43555H9.45132H9.46709H9.48286H9.49863H9.51439H9.53016H9.54593H9.5617H9.57747H9.59324H9.60901H9.62478H9.64054H9.65631H9.67208H9.68785H9.70362H9.71939H9.73516H9.75093H9.76669H9.78246H9.79823H9.814H9.82977H9.84554H9.86131H9.87708H9.89284H9.90861H9.92438H9.94015H9.95592H9.97169H9.98746H10.0032H10.019H10.0348H10.0505H10.0663H10.0821H10.0978H10.1136H10.1294H10.1451H10.1609H10.1767H10.1925H10.2082H10.224H10.2398H10.2555H10.2713H10.2871H10.3028H10.3186H10.3344H10.3501H10.3659H10.3817H10.3974H10.4132H10.429H10.4448H10.4605H10.4763H10.4921H10.5078H10.5236H10.5394H10.5551H10.5709H10.5867H10.6024H10.6182H10.634H10.6497H10.6655H10.6813H10.6971H10.7128H10.7286H10.7444H10.7601H10.7759H10.7917H10.8074H10.8232H10.839H10.8547H10.8705H10.8863H10.902H10.9178H10.9336H10.9494H10.9651H10.9809H10.9967H11.0124H11.0282H11.044H11.0597H11.0755H11.0913H11.107H11.1228H11.1386H11.1544H11.1701H11.1859H11.2017H11.2174H11.2332H11.249H11.2647H11.2805H11.2963H11.312H11.3278H11.3436H11.3593H11.3751H11.3909H11.4067H11.4224H11.4382H11.454H11.4697H11.4855H11.5013H11.517H11.5328H11.5486H11.5643H11.5801H11.5959H11.6116H11.6274H11.6432H11.659H11.6747H11.6905H11.7063H11.722H11.7378H11.7536H11.7693H11.7851H11.8009H11.8166H11.8324H11.8482H11.8639H11.8797H11.8955H11.9113H11.927H11.9428H11.9586H11.9743H11.9901H12.0059H12.0216H12.0374H12.0532H12.0689H12.0847H12.1005H12.1162H12.132H12.1478H12.1636H12.1793H12.1951H12.2109H12.2266H12.2424H12.2582H12.2739H12.2897H12.3055H12.3212H12.337H12.3528H12.3685H12.3843H12.4001H12.4159H12.4316H12.4474H12.4632H12.4789H12.4947H12.5105H12.5262H12.542H12.5578H12.5735H12.5893H12.6051H12.6208H12.6366H12.6524H12.6682H12.6839H12.6997H12.7155H12.7312H12.747H12.7628H12.7785H12.7943H12.8101H12.8258H12.8416H12.8574H12.8731H12.8889H12.9047H12.9205H12.9362H12.952H12.9678H12.9835H12.9993H13.0151H13.0309H13.0466H13.0624H13.0782H13.094H13.1097H13.1255H13.1413H13.157H13.1728H13.1886H13.2043H13.2201H13.2359H13.2516H13.2674H13.2832H13.2989H13.3147H13.3305H13.3463H13.362H13.3778H13.3936H13.4093H13.4251H13.4409H13.4566H13.4724H13.4882H13.5039H13.5197H13.5355H13.5512H13.567H13.5828H13.5986H13.6143H13.6301H13.6459H13.6616H13.6774H13.6932H13.7089H13.7247H13.7405H13.7562H13.772H13.7878H13.8035H13.8193H13.8351H13.8509H13.8666H13.8824H13.8982H13.9139H13.9297H13.9455H13.9612H13.977H13.9928H14.0085H14.0243H14.0401H14.0558H14.0716H14.0874H14.1032H14.1189H14.1347H14.1505H14.1662H14.182H14.1978H14.2135H14.2293H14.2451H14.2608H14.2766H14.2924H14.3081H14.3239H14.3397H14.3555H14.3712H14.387H14.4028H14.4185H14.4343H14.4501H14.4658H14.4816H14.4974H14.5131H14.5289H14.5447H14.5604H14.5762H14.592H14.6078H14.6235H14.6393H14.6551H14.6708H14.6866H14.7024H14.7181H14.7339H14.7497H14.7654H14.7812H14.797H14.8127H14.8285H14.8443H14.8601H14.8758H14.8916H14.9074H14.9231H14.9389H14.9547H14.9704H14.9862H15.002H15.0177H15.0335H15.0493H15.065H15.0808H15.0966H15.1124H15.1281H15.1439H15.1597H15.1754H15.1912H15.207H15.2227H15.2385H15.2543H15.27H15.2858H15.3016H15.3173H15.3331H15.3489H15.3647H15.3804H15.3962H15.412H15.4277H15.4435H15.4593H15.475H15.4908H15.5066H15.5223H15.5381H15.5539H15.5696H15.5854H15.6012H15.617H15.6327H15.6485H15.6643H15.68H15.6958H15.7116H15.7273H15.7431H15.7589H15.7746H15.7904H15.8062H15.8219H15.8377H15.8535H15.8693H15.885H15.9008H15.9166H15.9323H15.9481H15.9639H15.9796H15.9954H16.0112H16.0269H16.0427H16.0585H16.0742H16.09H16.1058H16.1216H16.1373H16.1531H16.1689H16.1846H16.2004H16.2162H16.2319H16.2477H16.2635H16.2792H16.295H16.3108H16.3265H16.3423H16.3581H16.3739H16.3896H16.4054H16.4212H16.4369H16.4527H16.4685H16.4842H16.5H16.5158H16.52C19.2246 35.3419 21.929 35.3419 24.6336 35.3438C24.9834 35.3438 25.2155 35.3221 25.3775 35.2044C25.541 35.0856 25.6224 34.8774 25.7008 34.5437C25.7078 34.5133 25.7151 34.4829 25.7222 34.4525C25.8799 33.7804 26.0405 33.0956 26.0939 32.4068C26.2109 30.8977 25.9693 29.5319 25.3038 28.4109C24.6379 27.2892 23.5504 26.4173 21.9843 25.8919C20.5747 25.4183 19.1144 25.272 17.647 25.2165C15.5399 25.137 13.4355 25.2033 11.3925 25.8156C9.20385 26.472 7.63648 27.8015 7.129 30.1281C6.80522 31.613 6.9414 33.0875 7.37018 34.5372ZM21.7968 27.4368C22.7173 27.7953 23.4173 28.3175 23.8875 28.9945C24.3576 29.6714 24.6004 30.5066 24.6004 31.4954C24.6004 32.0347 24.5433 32.5723 24.4858 33.1135C24.4611 33.3465 24.4362 33.5802 24.4158 33.815H24.3995H24.3682H24.337H24.306H24.2747H24.2436H24.2125H24.1812H24.1502H24.1189H24.0879H24.0567H24.0256H23.9944H23.9633H23.9321H23.9009H23.8699H23.8388H23.8076H23.7765H23.7453H23.7143H23.6832H23.6521H23.621H23.5898H23.5588H23.5277H23.4965H23.4655H23.4344H23.4032H23.3722H23.3411H23.3099H23.2789H23.2479H23.2168H23.1856H23.1546H23.1236H23.0925H23.0615H23.0303H22.9993H22.9683H22.9372H22.9062H22.8751H22.8441H22.813H22.782H22.751H22.7199H22.6889H22.6579H22.6268H22.5958H22.5648H22.5338H22.5027H22.4717H22.4407H22.4097H22.3787H22.3477H22.3167H22.2857H22.2547H22.2237H22.1927H22.1617H22.1307H22.0997H22.0687H22.0377H22.0068H21.9758H21.9448H21.9138H21.8829H21.8519H21.8209H21.7899H21.759H21.728H21.6971H21.6661H21.6351H21.6042H21.5732H21.5423H21.5113H21.4804H21.4495H21.4185H21.3876H21.3566H21.3257H21.2948H21.2638H21.2329H21.202H21.1711H21.1401H21.1092H21.0783H21.0474H21.0165H20.9856H20.9547H20.9238H20.8928H20.8619H20.831H20.8001H20.7692H20.7384H20.7075H20.6766H20.6457H20.6148H20.5839H20.553H20.5221H20.4913H20.4604H20.4295H20.3986H20.3678H20.3369H20.306H20.2752H20.2443H20.2134H20.1826H20.1517H20.1208H20.09H20.0591H20.0283H19.9974H19.9666H19.9357H19.9049H19.8741H19.8432H19.8124H19.7815H19.7507H19.7199H19.689H19.6582H19.6274H19.5965H19.5657H19.5349H19.5041H19.4733H19.4424H19.4116H19.3808H19.35H19.3192H19.2884H19.2576H19.2268H19.1959H19.1651H19.1343H19.1035H19.0727H19.0419H19.0112H18.9804H18.9496H18.9188H18.888H18.8572H18.8264H18.7956H18.7648H18.7341H18.7033H18.6725H18.6417H18.6109H18.5802H18.5494H18.5186H18.4879H18.4571H18.4263H18.3956H18.3648H18.334H18.3033H18.2725H18.2418H18.211H18.1802H18.1495H18.1187H18.088H18.0572H18.0265H17.9957H17.965H17.9343H17.9035H17.8728H17.842H17.8113H17.7805H17.7498H17.7191H17.6883H17.6576H17.6269H17.5962H17.5654H17.5347H17.504H17.4732H17.4425H17.4118H17.3811H17.3504H17.3196H17.2889H17.2582H17.2275H17.1968H17.1661H17.1354H17.1046H17.0739H17.0432H17.0125H16.9818H16.9511H16.9204H16.8897H16.859H16.8283H16.7976H16.7669H16.7362H16.7055H16.6748H16.6441H16.6134H16.5827H16.552H16.5214H16.4907H16.46H16.4293H16.3986H16.3679H16.3372H16.3066H16.2759H16.2452H16.2145H16.1838H16.1532H16.1225H16.0918H16.0611H16.0305H15.9998H15.9691H15.9384H15.9078H15.8771H15.8464H15.8158H15.7851H15.7544H15.7238H15.6931H15.6624H15.6318H15.6011H15.5705H15.5398H15.5091H15.4785H15.4478H15.4172H15.3865H15.3559H15.3252H15.2945H15.2639H15.2332H15.2026H15.1719H15.1413H15.1106H15.08H15.0493H15.0187H14.988H14.9574H14.9268H14.8961H14.8655H14.8348H14.8042H14.7735H14.7429H14.7123H14.6816H14.651H14.6203H14.5897H14.5591H14.5284H14.4978H14.4672H14.4365H14.4059H14.3753H14.3446H14.314H14.2834H14.2527H14.2221H14.1915H14.1608H14.1302H14.0996H14.0689H14.0383H14.0077H13.9771H13.9464H13.9158H13.8852H13.8546H13.8239H13.7933H13.7627H13.7321H13.7014H13.6708H13.6402H13.6096H13.5789H13.5483H13.5177H13.4871H13.4565H13.4258H13.3952H13.3646H13.334H13.3034H13.2727H13.2421H13.2115H13.1809H13.1503H13.1197H13.089H13.0584H13.0278H12.9971H12.9665H12.9359H12.9053H12.8747H12.8441H12.8135H12.7828H12.7522H12.7216H12.691H12.6604H12.6298H12.5992H12.5685H12.5379H12.5073H12.4767H12.4461H12.4155H12.3849H12.3543H12.3236H12.293H12.2624H12.2318H12.2012H12.1706H12.14H12.1094H12.0787H12.0481H12.0175H11.9869H11.9563H11.9257H11.8951H11.8645H11.8339H11.8032H11.7726H11.742H11.7114H11.6808H11.6502H11.6196H11.589H11.5583H11.5277H11.4971H11.4665H11.4359H11.4053H11.3747H11.3441H11.3134H11.2828H11.2522H11.2216H11.191H11.1604H11.1298H11.0991H11.0685H11.0379H11.0073H10.9767H10.9461H10.9155H10.8848H10.8542H10.8236H10.793H10.7624H10.7318H10.7011H10.6705H10.6399H10.6093H10.5787H10.5481H10.5174H10.4868H10.4562H10.4256H10.395H10.3643H10.3337H10.3031H10.2725H10.2419H10.2112H10.1806H10.15H10.1194H10.0887H10.0581H10.0275H9.99686H9.96623H9.93561H9.90498H9.87435H9.84373H9.8131H9.78247H9.75184H9.72121H9.69058H9.65995H9.62932H9.59869H9.56806H9.53743H9.50679H9.47616H9.44553H9.41489H9.38426H9.35362H9.32299H9.29235H9.26171H9.23107H9.20044H9.1698H9.13916H9.10852H9.07788H9.04723H9.01659H8.98595H8.9553H8.92466H8.89402H8.86337H8.83272H8.80208H8.77143H8.74901C8.37383 32.3304 8.28206 30.8707 8.95486 29.4635C9.59242 28.1301 10.7968 27.5203 12.1623 27.1707C14.1382 26.6661 16.1543 26.6436 18.1801 26.7618C19.4168 26.8338 20.6379 26.985 21.7968 27.4368Z" fill="#33B7BC"/>
<path d="M17.647 25.2165C19.1144 25.272 20.5747 25.4183 21.9843 25.8919C23.5504 26.4173 24.6379 27.2892 25.3038 28.4109C25.9693 29.5319 26.2109 30.8977 26.0939 32.4068C26.0405 33.0956 25.8799 33.7804 25.7222 34.4525C25.7151 34.4829 25.7079 34.5133 25.7008 34.5437C25.6225 34.8774 25.541 35.0856 25.3775 35.2044C25.2155 35.3221 24.9833 35.3438 24.6336 35.3438C21.929 35.3419 19.2246 35.3419 16.52 35.3419H16.5158H16.5H16.4842H16.4685H16.4527H16.4369H16.4212H16.4054H16.3896H16.3739H16.3581H16.3423H16.3265H16.3108H16.295H16.2792H16.2635H16.2477H16.2319H16.2162H16.2004H16.1846H16.1689H16.1531H16.1373H16.1216H16.1058H16.09H16.0742H16.0585H16.0427H16.0269H16.0112H15.9954H15.9796H15.9639H15.9481H15.9323H15.9166H15.9008H15.885H15.8693H15.8535H15.8377H15.8219H15.8062H15.7904H15.7746H15.7589H15.7431H15.7273H15.7116H15.6958H15.68H15.6643H15.6485H15.6327H15.617H15.6012H15.5854H15.5696H15.5539H15.5381H15.5223H15.5066H15.4908H15.475H15.4593H15.4435H15.4277H15.412H15.3962H15.3804H15.3647H15.3489H15.3331H15.3173H15.3016H15.2858H15.27H15.2543H15.2385H15.2227H15.207H15.1912H15.1754H15.1597H15.1439H15.1281H15.1124H15.0966H15.0808H15.065H15.0493H15.0335H15.0177H15.002H14.9862H14.9704H14.9547H14.9389H14.9231H14.9074H14.8916H14.8758H14.8601H14.8443H14.8285H14.8127H14.797H14.7812H14.7654H14.7497H14.7339H14.7181H14.7024H14.6866H14.6708H14.6551H14.6393H14.6235H14.6078H14.592H14.5762H14.5604H14.5447H14.5289H14.5131H14.4974H14.4816H14.4658H14.4501H14.4343H14.4185H14.4028H14.387H14.3712H14.3555H14.3397H14.3239H14.3081H14.2924H14.2766H14.2608H14.2451H14.2293H14.2135H14.1978H14.182H14.1662H14.1505H14.1347H14.1189H14.1032H14.0874H14.0716H14.0558H14.0401H14.0243H14.0085H13.9928H13.977H13.9612H13.9455H13.9297H13.9139H13.8982H13.8824H13.8666H13.8509H13.8351H13.8193H13.8035H13.7878H13.772H13.7562H13.7405H13.7247H13.7089H13.6932H13.6774H13.6616H13.6459H13.6301H13.6143H13.5986H13.5828H13.567H13.5512H13.5355H13.5197H13.5039H13.4882H13.4724H13.4566H13.4409H13.4251H13.4093H13.3936H13.3778H13.362H13.3463H13.3305H13.3147H13.2989H13.2832H13.2674H13.2516H13.2359H13.2201H13.2043H13.1886H13.1728H13.157H13.1413H13.1255H13.1097H13.094H13.0782H13.0624H13.0466H13.0309H13.0151H12.9993H12.9835H12.9678H12.952H12.9362H12.9205H12.9047H12.8889H12.8731H12.8574H12.8416H12.8258H12.8101H12.7943H12.7785H12.7628H12.747H12.7312H12.7155H12.6997H12.6839H12.6682H12.6524H12.6366H12.6208H12.6051H12.5893H12.5735H12.5578H12.542H12.5262H12.5105H12.4947H12.4789H12.4632H12.4474H12.4316H12.4159H12.4001H12.3843H12.3685H12.3528H12.337H12.3212H12.3055H12.2897H12.2739H12.2582H12.2424H12.2266H12.2109H12.1951H12.1793H12.1636H12.1478H12.132H12.1162H12.1005H12.0847H12.0689H12.0532H12.0374H12.0216H12.0059H11.9901H11.9743H11.9586H11.9428H11.927H11.9113H11.8955H11.8797H11.8639H11.8482H11.8324H11.8166H11.8009H11.7851H11.7693H11.7536H11.7378H11.722H11.7063H11.6905H11.6747H11.659H11.6432H11.6274H11.6116H11.5959H11.5801H11.5643H11.5486H11.5328H11.517H11.5013H11.4855H11.4697H11.454H11.4382H11.4224H11.4067H11.3909H11.3751H11.3593H11.3436H11.3278H11.312H11.2963H11.2805H11.2647H11.249H11.2332H11.2174H11.2017H11.1859H11.1701H11.1544H11.1386H11.1228H11.107H11.0913H11.0755H11.0597H11.044H11.0282H11.0124H10.9967H10.9809H10.9651H10.9494H10.9336H10.9178H10.902H10.8863H10.8705H10.8547H10.839H10.8232H10.8074H10.7917H10.7759H10.7601H10.7444H10.7286H10.7128H10.6971H10.6813H10.6655H10.6497H10.634H10.6182H10.6024H10.5867H10.5709H10.5551H10.5394H10.5236H10.5078H10.4921H10.4763H10.4605H10.4448H10.429H10.4132H10.3974H10.3817H10.3659H10.3501H10.3344H10.3186H10.3028H10.2871H10.2713H10.2555H10.2398H10.224H10.2082H10.1925H10.1767H10.1609H10.1451H10.1294H10.1136H10.0978H10.0821H10.0663H10.0505H10.0348H10.019H10.0032H9.98746H9.97169H9.95592H9.94015H9.92438H9.90861H9.89284H9.87708H9.86131H9.84554H9.82977H9.814H9.79823H9.78246H9.76669H9.75093H9.73516H9.71939H9.70362H9.68785H9.67208H9.65631H9.64054H9.62478H9.60901H9.59324H9.57747H9.5617H9.54593H9.53016H9.51439H9.49863H9.48286H9.46709H9.45132H9.43555H9.41978H9.40401H9.38824H9.37248H9.35671H9.34094H9.32517H9.3094H9.29363H9.27786H9.26209H9.24633H9.23056H9.21479H9.19902H9.18325H9.16748H9.15171H9.13594H9.12018H9.10441H9.08864H9.07287H9.0571H9.04133H9.02556H9.00979H8.99403H8.97826H8.96249H8.94672H8.93095H8.91518H8.89941H8.88364H8.86788H8.85211H8.83634H8.82057H8.8048H8.78903H8.77326H8.75749H8.74173H8.72596H8.71019H8.69442H8.67865H8.66288H8.64711H8.63134H8.61558H8.59981H8.58404H8.56827H8.5525H8.53673H8.52096H8.50519H8.48943H8.47366H8.45789H8.44212C8.10025 35.3419 7.87649 35.3144 7.71559 35.1927C7.55488 35.0712 7.46685 34.8631 7.37018 34.5372C6.9414 33.0875 6.80522 31.613 7.129 30.1281C7.63648 27.8015 9.20385 26.472 11.3925 25.8156C13.4355 25.2033 15.5399 25.137 17.647 25.2165ZM17.647 25.2165L17.6453 25.2609M18.1801 26.7618C16.1543 26.6436 14.1382 26.6661 12.1623 27.1707C10.7968 27.5203 9.59242 28.1301 8.95486 29.4635C8.28206 30.8707 8.37383 32.3304 8.74901 33.815H8.77143H8.80208H8.83272H8.86337H8.89402H8.92466H8.9553H8.98595H9.01659H9.04723H9.07788H9.10852H9.13916H9.1698H9.20044H9.23107H9.26171H9.29235H9.32299H9.35362H9.38426H9.41489H9.44553H9.47616H9.50679H9.53743H9.56806H9.59869H9.62932H9.65995H9.69058H9.72121H9.75184H9.78247H9.8131H9.84373H9.87435H9.90498H9.93561H9.96623H9.99686H10.0275H10.0581H10.0887H10.1194H10.15H10.1806H10.2112H10.2419H10.2725H10.3031H10.3337H10.3643H10.395H10.4256H10.4562H10.4868H10.5174H10.5481H10.5787H10.6093H10.6399H10.6705H10.7011H10.7318H10.7624H10.793H10.8236H10.8542H10.8848H10.9155H10.9461H10.9767H11.0073H11.0379H11.0685H11.0991H11.1298H11.1604H11.191H11.2216H11.2522H11.2828H11.3134H11.3441H11.3747H11.4053H11.4359H11.4665H11.4971H11.5277H11.5583H11.589H11.6196H11.6502H11.6808H11.7114H11.742H11.7726H11.8032H11.8339H11.8645H11.8951H11.9257H11.9563H11.9869H12.0175H12.0481H12.0787H12.1094H12.14H12.1706H12.2012H12.2318H12.2624H12.293H12.3236H12.3543H12.3849H12.4155H12.4461H12.4767H12.5073H12.5379H12.5685H12.5992H12.6298H12.6604H12.691H12.7216H12.7522H12.7828H12.8135H12.8441H12.8747H12.9053H12.9359H12.9665H12.9971H13.0278H13.0584H13.089H13.1197H13.1503H13.1809H13.2115H13.2421H13.2727H13.3034H13.334H13.3646H13.3952H13.4258H13.4565H13.4871H13.5177H13.5483H13.5789H13.6096H13.6402H13.6708H13.7014H13.7321H13.7627H13.7933H13.8239H13.8546H13.8852H13.9158H13.9464H13.9771H14.0077H14.0383H14.0689H14.0996H14.1302H14.1608H14.1915H14.2221H14.2527H14.2834H14.314H14.3446H14.3753H14.4059H14.4365H14.4672H14.4978H14.5284H14.5591H14.5897H14.6203H14.651H14.6816H14.7123H14.7429H14.7735H14.8042H14.8348H14.8655H14.8961H14.9268H14.9574H14.988H15.0187H15.0493H15.08H15.1106H15.1413H15.1719H15.2026H15.2332H15.2639H15.2945H15.3252H15.3559H15.3865H15.4172H15.4478H15.4785H15.5091H15.5398H15.5705H15.6011H15.6318H15.6624H15.6931H15.7238H15.7544H15.7851H15.8158H15.8464H15.8771H15.9078H15.9384H15.9691H15.9998H16.0305H16.0611H16.0918H16.1225H16.1532H16.1838H16.2145H16.2452H16.2759H16.3066H16.3372H16.3679H16.3986H16.4293H16.46H16.4907H16.5214H16.552H16.5827H16.6134H16.6441H16.6748H16.7055H16.7362H16.7669H16.7976H16.8283H16.859H16.8897H16.9204H16.9511H16.9818H17.0125H17.0432H17.0739H17.1046H17.1354H17.1661H17.1968H17.2275H17.2582H17.2889H17.3196H17.3504H17.3811H17.4118H17.4425H17.4732H17.504H17.5347H17.5654H17.5962H17.6269H17.6576H17.6883H17.7191H17.7498H17.7805H17.8113H17.842H17.8728H17.9035H17.9343H17.965H17.9957H18.0265H18.0572H18.088H18.1187H18.1495H18.1802H18.211H18.2418H18.2725H18.3033H18.334H18.3648H18.3956H18.4263H18.4571H18.4879H18.5186H18.5494H18.5802H18.6109H18.6417H18.6725H18.7033H18.7341H18.7648H18.7956H18.8264H18.8572H18.888H18.9188H18.9496H18.9804H19.0112H19.0419H19.0727H19.1035H19.1343H19.1651H19.1959H19.2268H19.2576H19.2884H19.3192H19.35H19.3808H19.4116H19.4424H19.4733H19.5041H19.5349H19.5657H19.5965H19.6274H19.6582H19.689H19.7199H19.7507H19.7815H19.8124H19.8432H19.8741H19.9049H19.9357H19.9666H19.9974H20.0283H20.0591H20.09H20.1208H20.1517H20.1826H20.2134H20.2443H20.2752H20.306H20.3369H20.3678H20.3986H20.4295H20.4604H20.4913H20.5221H20.553H20.5839H20.6148H20.6457H20.6766H20.7075H20.7384H20.7692H20.8001H20.831H20.8619H20.8928H20.9238H20.9547H20.9856H21.0165H21.0474H21.0783H21.1092H21.1401H21.1711H21.202H21.2329H21.2638H21.2948H21.3257H21.3566H21.3876H21.4185H21.4495H21.4804H21.5113H21.5423H21.5732H21.6042H21.6351H21.6661H21.6971H21.728H21.759H21.7899H21.8209H21.8519H21.8829H21.9138H21.9448H21.9758H22.0068H22.0377H22.0687H22.0997H22.1307H22.1617H22.1927H22.2237H22.2547H22.2857H22.3167H22.3477H22.3787H22.4097H22.4407H22.4717H22.5027H22.5338H22.5648H22.5958H22.6268H22.6579H22.6889H22.7199H22.751H22.782H22.813H22.8441H22.8751H22.9062H22.9372H22.9683H22.9993H23.0303H23.0615H23.0925H23.1236H23.1546H23.1856H23.2168H23.2479H23.2789H23.3099H23.3411H23.3722H23.4032H23.4344H23.4655H23.4965H23.5277H23.5588H23.5898H23.621H23.6521H23.6832H23.7143H23.7453H23.7765H23.8076H23.8388H23.8699H23.9009H23.9321H23.9633H23.9944H24.0256H24.0567H24.0879H24.1189H24.1502H24.1812H24.2125H24.2436H24.2747H24.306H24.337H24.3682H24.3995H24.4158C24.4362 33.5802 24.4611 33.3465 24.4858 33.1135C24.5433 32.5723 24.6004 32.0347 24.6004 31.4954C24.6004 30.5066 24.3576 29.6714 23.8875 28.9945C23.4173 28.3175 22.7173 27.7953 21.7968 27.4368C20.6379 26.985 19.4168 26.8338 18.1801 26.7618ZM18.1801 26.7618L18.1828 26.7157" stroke="#33B7BC" stroke-width="0.1"/>
<circle cx="16.5" cy="19.5" r="4.5" stroke="#33B7BC" stroke-width="1.5"/>
<path d="M28.0742 15.4058H28.0242V15.4558V16.8771V16.9271H28.0742H42.6762H42.7262V16.8771V15.4558V15.4058H42.6762H28.0742Z" fill="#33B7BC" stroke="#33B7BC" stroke-width="0.1"/>
<path d="M28.0742 19.7715H28.0242V19.8215V21.2429V21.2929H28.0742H39.2641H39.3141V21.2429V19.8215V19.7715H39.2641H28.0742Z" fill="#33B7BC" stroke="#33B7BC" stroke-width="0.1"/>
<path d="M28.0742 24.1392H28.0242V24.1892V25.6105V25.6605H28.0742H36.8446H36.8946V25.6105V24.1892V24.1392H36.8446H28.0742Z" fill="#33B7BC" stroke="#33B7BC" stroke-width="0.1"/>
<path d="M32.4584 28.5049H32.4084V28.5549V29.9763V30.0263H32.4584H42.6761H42.7261V29.9763V28.5549V28.5049H42.6761H32.4584Z" fill="#33B7BC" stroke="#33B7BC" stroke-width="0.1"/>
<path d="M28.0834 32.8672H28.0334V32.9172V34.3386V34.3886H28.0834H38.3011H38.3511V34.3386V32.9172V32.8672H38.3011H28.0834Z" fill="#33B7BC" stroke="#33B7BC" stroke-width="0.1"/>
<path d="M38.4067 24.1392H38.3567V24.1892V25.6105V25.6605H38.4067H42.6764H42.7264V25.6105V24.1892V24.1392H42.6764H38.4067Z" fill="#33B7BC" stroke="#33B7BC" stroke-width="0.1"/>
<path d="M28.0723 28.4976H28.0223V28.5476V29.9689V30.0189H28.0723H31.0056H31.0556V29.9689V28.5476V28.4976H31.0056H28.0723Z" fill="#33B7BC" stroke="#33B7BC" stroke-width="0.1"/>
<path d="M43 11.6499H7.00002C5.14987 11.6499 3.65002 13.1497 3.65002 14.9999V34.9999C3.65002 36.8501 5.14987 38.3499 7.00002 38.3499H43C44.8502 38.3499 46.35 36.8501 46.35 34.9999V14.9999C46.35 13.1497 44.8502 11.6499 43 11.6499Z" stroke="#33B7BC" stroke-width="1.5"/>
</g>
<defs>
<clipPath id="clip0_2_15805">
<rect width="44" height="28" fill="white" transform="translate(3 11)"/>
</clipPath>
</defs>
</svg>
