<svg width="50" height="50" viewBox="0 0 50 50" fill="none" xmlns="http://www.w3.org/2000/svg">
<path fill-rule="evenodd" clip-rule="evenodd" d="M30.6187 42.6116H46.0689C46.5852 42.6116 47 43.0264 47 43.5334C47 44.0404 46.5852 44.4553 46.0781 44.4553H3.92185C3.41483 44.4553 3 44.0404 3 43.5334C3 43.0264 3.41483 42.6116 3.92185 42.6116H5.91305V8.84412C5.91305 6.75152 7.59082 5 9.69265 5H26.8207C28.9225 5 30.6187 6.7423 30.6187 8.84412V26.0182H32.1213H32.1305C34.5089 26.0275 36.4356 27.9726 36.4264 30.3602V32.9137C36.4264 34.5915 37.7907 35.9558 39.4685 35.9558C41.1462 35.9558 42.5106 34.5915 42.5106 32.9137V20.3027C41.8837 20.7452 41.137 20.9757 40.3719 20.9849C38.5558 20.9849 37.0071 19.6759 36.7121 17.8875C36.371 15.8686 37.7354 13.9604 39.7542 13.6193L34.1678 7.24932L35.5506 6.03247L42.7595 14.2462C43.792 15.3616 44.3543 16.8181 44.3543 18.33V32.9137C44.3543 35.6147 42.1695 37.7995 39.4685 37.7995C36.7674 37.7995 34.5827 35.6147 34.5827 32.9137V30.3602V30.3417C34.5919 28.9774 33.4856 27.8619 32.1213 27.8619H30.6187V42.6116ZM38.5097 17.2699C38.5097 18.2931 39.3394 19.132 40.3719 19.132C41.3951 19.132 42.234 18.2931 42.234 17.2699C42.234 16.2466 41.4044 15.4077 40.3719 15.4077C39.3486 15.4077 38.5097 16.2466 38.5097 17.2699ZM7.75676 42.6116H28.775V8.84412C28.775 7.76556 27.9084 6.8437 26.8207 6.8437H9.69265C8.60486 6.8437 7.75676 7.75634 7.75676 8.84412V42.6116ZM10.2452 9.51938H26.562C27.069 9.51938 27.4839 9.93421 27.4839 10.4412V21.2269C27.4839 21.7339 27.069 22.1488 26.562 22.1488H10.2452C9.73819 22.1488 9.32336 21.7339 9.32336 21.2269V10.4412C9.32336 9.93421 9.73819 9.51938 10.2452 9.51938ZM11.1671 20.305H25.6401V11.3631H11.1671V20.305Z" fill="#33B7BC"/>
</svg>
