<svg width="50" height="50" viewBox="0 0 50 50" fill="none" xmlns="http://www.w3.org/2000/svg">
<g clip-path="url(#clip0_29_3389)">
<path d="M-27.2727 18.1248C-26.9674 17.9712 -26.6753 17.7708 -26.3531 17.6715C-20.8938 15.9916 -15.4307 14.3229 -9.96392 12.6636C-9.6137 12.5568 -9.23164 12.5137 -8.86456 12.5137C-4.15999 12.5044 0.546455 12.5343 5.25103 12.5006C9.93313 12.4669 14.1751 13.8041 18.0275 16.4411C19.7637 17.6285 21.5148 18.7952 23.2453 19.9939C23.6498 20.2748 24.0525 20.3909 24.545 20.3834C26.2062 20.3591 27.8693 20.374 29.5305 20.374C33.7575 20.3759 37.565 21.6644 40.9811 24.1291C42.043 24.8951 43.0805 25.6948 44.1256 26.4851C44.7174 26.9327 44.7736 27.1219 44.487 27.7905C44.0638 28.7775 43.6367 29.7626 43.191 30.7383C43.0206 31.1092 42.9419 31.4781 42.9532 31.8864C42.9719 32.6823 42.9663 33.4783 42.9569 34.2743C42.9494 34.896 42.734 35.1133 42.1104 35.117C40.8462 35.1264 39.5821 35.1189 38.3179 35.1208C38.1325 35.1208 37.9471 35.1208 37.7841 35.1208C34.6321 39.7823 28.1184 39.8347 24.9009 35.1189C21.747 35.1189 18.5669 35.1189 15.3419 35.1189C15.3419 34.6544 15.3419 34.2237 15.3419 33.7368C18.2879 33.7368 21.2282 33.7368 24.206 33.7368C23.2041 30.0285 24.0525 26.9589 27.2288 24.7752C29.7983 23.0091 33.1751 23.1346 35.5423 24.8295C38.6288 27.0395 39.4828 30.0548 38.4883 33.6843C39.5015 33.6843 40.496 33.6843 41.556 33.6843C41.556 32.9801 41.5804 32.3059 41.5485 31.6354C41.5223 31.1035 41.6478 30.6241 41.865 30.1503C42.1872 29.4517 42.4887 28.7456 42.8333 27.9628C41.7321 27.9628 40.6926 27.9628 39.6233 27.9628C39.6233 27.4852 39.6233 27.0713 39.6233 26.6143C40.2713 26.4683 40.9511 26.6162 41.6834 26.5207C41.5504 26.3896 41.4568 26.2772 41.3444 26.1892C39.8442 25.0262 38.2842 23.9587 36.5181 23.2283C34.8026 22.5203 33.0365 21.9922 31.1767 21.906C29.2384 21.8161 27.2962 21.8143 25.356 21.7749C24.678 21.7618 23.9607 21.8836 23.3352 21.6944C22.7359 21.5146 22.2283 21.0164 21.6871 20.6493C20.0802 19.5612 18.477 18.4675 16.8683 17.3812C14.2088 15.5871 11.276 14.5027 8.10336 14.0719C7.2943 13.9633 6.47212 13.9146 5.65556 13.9127C0.879822 13.8978 -3.89405 13.9015 -8.66979 13.909C-8.96757 13.909 -9.27659 13.9502 -9.56126 14.0364C-14.8502 15.6451 -20.1334 17.2595 -25.4167 18.8758C-25.5478 18.917 -25.677 18.9713 -25.8456 19.0331C-25.8531 19.2035 -25.8606 19.3852 -25.8699 19.5949C-25.7707 19.623 -25.6864 19.6661 -25.6003 19.6661C-24.5009 19.6717 -23.3997 19.6961 -22.3003 19.6605C-21.7291 19.6436 -21.3826 19.8347 -21.1691 20.374C-20.7908 21.3292 -20.3788 22.2712 -19.9574 23.2076C-19.757 23.6515 -19.7607 24.0448 -20.0211 24.4681C-20.435 25.146 -20.8245 25.839 -21.2028 26.5376C-21.4276 26.9533 -21.7366 27.1369 -22.2198 27.1219C-23.1787 27.0938 -24.1394 27.1144 -25.0983 27.1144C-25.3287 27.1144 -25.5591 27.1144 -25.8681 27.1144C-25.8681 27.6201 -25.8681 28.0808 -25.8681 28.5415C-25.8681 29.0565 -25.8419 29.5734 -25.8756 30.0866C-25.913 30.6522 -25.7838 31.1185 -25.3999 31.5605C-24.8942 32.1411 -24.4541 32.7797 -23.9859 33.394C-23.8585 33.5607 -23.7443 33.7255 -23.4877 33.7218C-22.7891 33.7105 -22.0906 33.718 -21.3564 33.718C-22.3677 29.8075 -21.4032 26.6218 -17.9104 24.558C-15.1704 22.9398 -12.3087 23.1103 -9.74667 25.0262C-6.83815 27.2024 -6.06654 30.1709 -7.05727 33.7087C-0.539792 33.7087 5.95147 33.7087 12.4746 33.7087C12.4746 34.1993 12.4746 34.6132 12.4746 35.0271C12.4558 35.0421 12.439 35.0571 12.4203 35.0721C12.4015 35.0852 12.3828 35.1039 12.3622 35.1058C12.2929 35.1152 12.2217 35.1227 12.1524 35.1227C5.52821 35.1283 -1.09603 35.1339 -7.72026 35.1414C-7.74273 35.1414 -7.76333 35.1564 -7.81016 35.1714C-9.34776 37.3551 -11.4247 38.623 -14.1647 38.6305C-16.9047 38.638 -18.9948 37.3982 -20.6073 35.1245C-21.0848 35.1245 -21.6186 35.1245 -22.1524 35.1245C-22.6899 35.1245 -23.2311 35.0908 -23.7667 35.1339C-24.3024 35.1788 -24.6357 34.9504 -24.9391 34.5402C-25.7014 33.5008 -26.4936 32.4894 -27.2727 31.4687C-27.2727 29.6895 -27.2727 27.9103 -27.2727 26.1312C-26.9262 25.5037 -26.267 25.8071 -25.7763 25.6723C-25.6714 24.5861 -25.7033 21.6139 -25.8231 21.097C-26.3213 21.0089 -26.9281 21.2524 -27.2727 20.6531C-27.2727 19.8103 -27.2727 18.9675 -27.2727 18.1248ZM-20.2889 31.0436C-20.3919 34.042 -17.9909 37.1566 -14.249 37.2053C-10.8666 37.2483 -8.07048 34.6114 -8.08546 31.0867C-8.10232 27.0975 -11.4191 24.9625 -14.1741 24.9588C-17.4422 24.955 -20.3544 27.6837 -20.2889 31.0436ZM31.379 24.9812C28.0735 24.8745 25.2511 27.7174 25.2267 31.0249C25.2043 33.9577 27.4629 37.1697 31.3453 37.1884C34.7464 37.2034 37.4545 34.5477 37.4583 31.0923C37.462 27.2324 34.252 24.8913 31.379 24.9812ZM-22.4014 25.6985C-22.0868 25.1404 -21.7965 24.6085 -21.4856 24.0898C-21.3508 23.865 -21.3433 23.6684 -21.4482 23.4305C-21.7834 22.6645 -22.1018 21.8929 -22.4277 21.125C-23.0738 21.125 -23.6881 21.125 -24.3061 21.125C-24.3061 22.6477 -24.3061 24.1178 -24.3043 25.588C-24.3043 25.6068 -24.278 25.6236 -24.2631 25.6405C-24.2481 25.6592 -24.2331 25.6761 -24.2125 25.6967C-23.63 25.6985 -23.0476 25.6985 -22.4014 25.6985Z" fill="#33B7BC"/>
<path d="M-5.54217 19.3288C-5.47287 18.8325 -5.41107 18.3999 -5.34552 17.9223C-4.7125 18.001 -4.12255 18.074 -3.47455 18.1546C-3.47455 17.3942 -3.47455 16.6825 -3.47455 15.9221C-3.64498 15.9071 -3.8229 15.8809 -4.00082 15.8791C-4.58514 15.8734 -5.17696 15.9315 -5.7538 15.8678C-7.72777 15.6506 -9.51071 16.3679 -11.4716 16.9503C-10.3048 17.1357 -9.27848 17.3005 -8.2222 17.4691C-8.08923 17.9448 -8.23156 18.3774 -8.38139 18.87C-8.92264 18.7988 -9.44891 18.7389 -9.97518 18.6602C-11.4978 18.4336 -13.0204 18.2014 -14.5412 17.9635C-14.7472 17.9317 -14.9569 17.8811 -15.148 17.7987C-15.4027 17.6863 -15.545 17.4522 -15.5469 17.1826C-15.5469 16.9166 -15.4251 16.6806 -15.1629 16.5626C-15.015 16.4971 -14.8577 16.4503 -14.7022 16.4053C-12.6234 15.7948 -10.5445 15.1805 -8.46192 14.5831C-8.17725 14.5006 -7.86636 14.4838 -7.5667 14.4819C-3.49702 14.4763 0.574529 14.4763 4.64421 14.4782C9.03977 14.48 13.0608 15.7292 16.7203 18.1452C17.6567 18.7632 18.5538 19.4375 19.4659 20.0892C19.5782 20.1697 19.6962 20.2578 19.7768 20.3664C20.1139 20.8196 19.8835 21.3908 19.3235 21.4845C19.1643 21.5107 18.9977 21.4957 18.8328 21.4957C15.5348 21.4957 12.2348 21.52 8.93676 21.4807C8.05652 21.4695 7.17816 21.2841 6.30167 21.153C4.61799 20.9001 2.93805 20.6305 1.25624 20.3683C-0.766423 20.0517 -2.78909 19.7352 -4.81176 19.4206C-5.01028 19.3869 -5.21629 19.3682 -5.54217 19.3288ZM0.876057 18.8119C1.11391 18.8662 1.33678 18.9299 1.56152 18.9655C3.26767 19.2333 4.97383 19.503 6.68186 19.7577C7.534 19.8851 8.39176 20.0592 9.24765 20.0761C11.5868 20.1192 13.9298 20.0911 16.2689 20.0892C16.46 20.0892 16.6529 20.0686 16.9019 20.0536C13.3042 17.3024 9.23267 16.0326 5.06747 15.8884C3.82765 15.8453 2.58596 15.8753 1.34614 15.8772C1.19257 15.8772 1.03712 15.9109 0.876057 15.9296C0.876057 16.9072 0.876057 17.8362 0.876057 18.8119ZM-1.95755 15.8772C-1.95755 16.7518 -1.95755 17.5552 -1.95755 18.3849C-1.4987 18.4523 -1.07544 18.5141 -0.610978 18.5816C-0.610978 17.6377 -0.610978 16.7874 -0.610978 15.9277C-0.706493 15.9053 -0.772043 15.8791 -0.837593 15.8791C-1.18969 15.8753 -1.53803 15.8772 -1.95755 15.8772Z" fill="#33B7BC"/>
<path d="M-3.22168 24.5075C-2.08112 25.9496 -0.987384 27.3186 0.0876258 28.7027C0.303002 28.9799 0.574566 29.0379 0.885457 29.0566C1.72636 29.1072 2.56539 29.1596 3.4063 29.2046C4.52626 29.2645 5.64809 29.3076 6.76992 29.3731C7.91235 29.4406 9.05479 29.5305 10.1972 29.6073C11.0606 29.6634 11.924 29.7178 12.7874 29.7646C13.9073 29.8245 15.0291 29.8676 16.151 29.935C18.3647 30.0698 20.5765 30.2197 22.8763 30.3676C22.8445 30.834 22.8145 31.2647 22.7846 31.6992C22.1253 31.6992 21.5204 31.7236 20.9192 31.6936C19.6588 31.6299 18.3984 31.54 17.1398 31.4595C15.9262 31.3808 14.7145 31.2984 13.5009 31.2198C12.6151 31.1636 11.7273 31.1055 10.8415 31.0587C8.85626 30.952 6.87105 30.8546 4.88772 30.7441C3.32389 30.6579 1.76195 30.5493 0.196251 30.4725C-0.279451 30.45 -0.573487 30.1972 -0.843176 29.8545C-1.97063 28.4199 -3.10369 26.9909 -4.23489 25.56C-4.45214 25.2847 -4.68062 25.0169 -4.88289 24.7304C-5.21813 24.2528 -5.13011 23.8464 -4.61882 23.5692C-4.24987 23.3707 -3.85845 23.2134 -3.47452 23.0411C-2.45382 22.5822 -1.42563 22.1346 -0.412422 21.657C-0.075311 21.4979 0.261801 21.4641 0.61015 21.5166C2.61596 21.8219 4.6199 22.144 6.62571 22.4474C8.60905 22.7489 10.5961 23.0298 12.5795 23.3314C14.2875 23.5898 15.9918 23.867 17.6979 24.1273C19.082 24.3371 20.4679 24.5319 21.8538 24.736C22.0598 24.766 22.2621 24.8147 22.528 24.8671C22.4568 25.3409 22.3894 25.7848 22.3182 26.2642C21.5092 26.1481 20.775 26.047 20.0409 25.9365C18.2879 25.6724 16.5349 25.4027 14.7819 25.1349C13.0514 24.8708 11.3228 24.603 9.59229 24.3427C7.88426 24.0861 6.17623 23.8389 4.4682 23.5861C3.17594 23.395 1.88368 23.1946 0.589548 23.0149C0.3929 22.9868 0.164412 23.0017 -0.015381 23.0785C-1.06792 23.5336 -2.10734 24.0075 -3.22168 24.5075Z" fill="#33B7BC"/>
<path d="M31.308 35.1415C29.2291 35.2033 27.257 33.4559 27.2383 31.098C27.2233 29.0997 28.7684 27.0339 31.2855 27.0133C33.9693 26.9909 35.4076 29.2982 35.3945 31.1092C35.3758 33.1132 33.6771 35.1958 31.308 35.1415ZM31.3173 33.7162C32.5927 33.7013 33.9318 32.7442 33.9524 31.0905C33.9693 29.6934 32.9242 28.433 31.2799 28.4517C29.7385 28.4704 28.6953 29.6334 28.6785 31.0943C28.6598 32.5345 29.8921 33.7181 31.3173 33.7162Z" fill="#33B7BC"/>
</g>
<defs>
<clipPath id="clip0_29_3389">
<rect width="44.3182" height="26.1364" fill="white" transform="translate(0 12.5)"/>
</clipPath>
</defs>
</svg>
